PathFileType	4	(X/Y/Z)	c:/Users/goper/Files/vsCode/490R/osim_files/C07/C07_Fast_07.trc
DataRate	CameraRate	NumFrames	NumMarkers	Units                	OrigDataRate	OrigDataStartFrame	OrigNumFrames
250.00	250.00	8	36	mm	250.0	567	2266
                Frame#	Time	LPSIS			LASIS			LTH1			LTH2			LTH3			LTH4			LLFE			LMFE			LSH1			LSH2			LSH3			LSH4			LLMAL			LMMAL			LCAL			LMTP5			LTOE			LMTP1			RPSIS			RASIS			RTH1			RTH2			RTH3			RTH4			RLFE			RMFE			RSH1			RSH2			RSH3			RSH4			RLMAL			RMMAL			RCAL			RMTP1			RTOE			RMTP5		
		X1	Y1	Z1	X2	Y2	Z2	X3	Y3	Z3	X4	Y4	Z4	X5	Y5	Z5	X6	Y6	Z6	X7	Y7	Z7	X8	Y8	Z8	X9	Y9	Z9	X10	Y10	Z10	X11	Y11	Z11	X12	Y12	Z12	X13	Y13	Z13	X14	Y14	Z14	X15	Y15	Z15	X16	Y16	Z16	X17	Y17	Z17	X18	Y18	Z18	X19	Y19	Z19	X20	Y20	Z20	X21	Y21	Z21	X22	Y22	Z22	X23	Y23	Z23	X24	Y24	Z24	X25	Y25	Z25	X26	Y26	Z26	X27	Y27	Z27	X28	Y28	Z28	X29	Y29	Z29	X30	Y30	Z30	X31	Y31	Z31	X32	Y32	Z32	X33	Y33	Z33	X34	Y34	Z34	X35	Y35	Z35	X36	Y36	Z36

567	2.26400	0.00000	0.00000	0.00000	0.00000	0.00000	0.00000	0.00000	0.00000	0.00000	1136.29077	567.44159	347.53247	0.00000	0.00000	0.00000	0.00000	0.00000	0.00000	0.00000	0.00000	0.00000	1185.56396	534.55798	388.01523	0.00000	0.00000	0.00000	0.00000	0.00000	0.00000	0.00000	0.00000	0.00000	0.00000	0.00000	0.00000	0.00000	0.00000	0.00000	0.00000	0.00000	0.00000	0.00000	0.00000	0.00000	0.00000	0.00000	0.00000	0.00000	0.00000	0.00000	0.00000	0.00000	0.00000	1421.91797	1039.08997	296.51559	0.00000	0.00000	0.00000	1299.59729	843.72040	171.34991	0.00000	0.00000	0.00000	0.00000	0.00000	0.00000	1228.74719	767.98578	215.78154	1313.38464	508.64035	235.60519	0.00000	0.00000	0.00000	0.00000	0.00000	0.00000	0.00000	0.00000	0.00000	0.00000	0.00000	0.00000	0.00000	0.00000	0.00000	0.00000	0.00000	0.00000	0.00000	0.00000	0.00000	0.00000	0.00000	0.00000	0.00000	0.00000	0.00000	1234.95715	57.88732	314.03989	1284.70227	46.36219	255.09383
568	2.26800	0.00000	0.00000	0.00000	0.00000	0.00000	0.00000	0.00000	0.00000	0.00000	1134.09790	567.88391	347.30515	0.00000	0.00000	0.00000	0.00000	0.00000	0.00000	0.00000	0.00000	0.00000	1177.34546	536.39569	387.98535	0.00000	0.00000	0.00000	0.00000	0.00000	0.00000	0.00000	0.00000	0.00000	0.00000	0.00000	0.00000	0.00000	0.00000	0.00000	0.00000	0.00000	0.00000	0.00000	0.00000	0.00000	0.00000	0.00000	0.00000	1367.51672	86.30843	447.30652	0.00000	0.00000	0.00000	1417.03406	1039.68311	296.63538	0.00000	0.00000	0.00000	1294.80737	843.34198	172.79053	0.00000	0.00000	0.00000	0.00000	0.00000	0.00000	1225.91614	767.90814	214.95937	1312.65942	509.05624	235.38829	0.00000	0.00000	0.00000	0.00000	0.00000	0.00000	0.00000	0.00000	0.00000	0.00000	0.00000	0.00000	0.00000	0.00000	0.00000	0.00000	0.00000	0.00000	0.00000	0.00000	0.00000	0.00000	0.00000	0.00000	0.00000	0.00000	0.00000	1234.98303	57.83571	314.03821	1284.68713	46.27076	255.06987
569	2.27200	0.00000	0.00000	0.00000	0.00000	0.00000	0.00000	0.00000	0.00000	0.00000	1131.92566	568.28577	347.01593	0.00000	0.00000	0.00000	0.00000	0.00000	0.00000	0.00000	0.00000	0.00000	1169.13928	538.14935	387.78592	0.00000	0.00000	0.00000	0.00000	0.00000	0.00000	0.00000	0.00000	0.00000	0.00000	0.00000	0.00000	0.00000	0.00000	0.00000	0.00000	0.00000	0.00000	0.00000	0.00000	0.00000	0.00000	0.00000	0.00000	1349.02954	85.41565	447.27521	0.00000	0.00000	0.00000	1412.12927	1040.17725	296.83707	0.00000	0.00000	0.00000	1291.64221	843.79523	172.49066	0.00000	0.00000	0.00000	0.00000	0.00000	0.00000	1223.27551	767.79596	214.10239	1311.79480	509.41711	235.15993	0.00000	0.00000	0.00000	0.00000	0.00000	0.00000	0.00000	0.00000	0.00000	0.00000	0.00000	0.00000	1346.19324	981.01868	480.15100	0.00000	0.00000	0.00000	0.00000	0.00000	0.00000	0.00000	0.00000	0.00000	0.00000	0.00000	0.00000	1234.99475	57.76176	314.07593	1284.65869	46.20861	255.04810
570	2.27600	0.00000	0.00000	0.00000	0.00000	0.00000	0.00000	0.00000	0.00000	0.00000	1129.85767	568.71460	346.72314	0.00000	0.00000	0.00000	0.00000	0.00000	0.00000	0.00000	0.00000	0.00000	1161.13110	539.78894	387.73212	0.00000	0.00000	0.00000	0.00000	0.00000	0.00000	0.00000	0.00000	0.00000	0.00000	0.00000	0.00000	0.00000	0.00000	0.00000	0.00000	0.00000	0.00000	0.00000	0.00000	0.00000	0.00000	0.00000	0.00000	1330.87329	83.70419	447.60571	0.00000	0.00000	0.00000	1407.21460	1040.60571	297.11563	0.00000	0.00000	0.00000	1288.42444	844.16882	172.25522	1288.51099	765.17834	178.31416	0.00000	0.00000	0.00000	1220.34521	767.62640	213.46118	1311.08911	509.86008	234.88554	0.00000	0.00000	0.00000	0.00000	0.00000	0.00000	0.00000	0.00000	0.00000	0.00000	0.00000	0.00000	1341.25891	981.78986	479.84195	0.00000	0.00000	0.00000	0.00000	0.00000	0.00000	0.00000	0.00000	0.00000	0.00000	0.00000	0.00000	1234.99146	57.72034	314.07791	1284.76758	46.32906	254.92036
571	2.28000	0.00000	0.00000	0.00000	0.00000	0.00000	0.00000	0.00000	0.00000	0.00000	1127.64539	569.09985	346.38571	0.00000	0.00000	0.00000	0.00000	0.00000	0.00000	0.00000	0.00000	0.00000	1153.26257	541.41467	387.62833	0.00000	0.00000	0.00000	0.00000	0.00000	0.00000	0.00000	0.00000	0.00000	0.00000	0.00000	0.00000	0.00000	0.00000	0.00000	0.00000	0.00000	0.00000	0.00000	0.00000	0.00000	0.00000	0.00000	0.00000	1313.08728	82.64279	447.71362	0.00000	0.00000	0.00000	1402.30579	1040.95862	297.37683	0.00000	0.00000	0.00000	1285.24280	844.52246	172.06639	1285.87622	765.50140	178.08769	0.00000	0.00000	0.00000	1216.84705	766.99341	213.56691	1310.16931	510.20166	234.69107	0.00000	0.00000	0.00000	0.00000	0.00000	0.00000	0.00000	0.00000	0.00000	0.00000	0.00000	0.00000	1336.34607	982.49854	479.58401	0.00000	0.00000	0.00000	0.00000	0.00000	0.00000	0.00000	0.00000	0.00000	0.00000	0.00000	0.00000	1234.93896	57.62529	314.09967	1284.59521	46.12083	255.00644
572	2.28400	0.00000	0.00000	0.00000	0.00000	0.00000	0.00000	0.00000	0.00000	0.00000	1125.39563	569.50739	346.08337	0.00000	0.00000	0.00000	0.00000	0.00000	0.00000	0.00000	0.00000	0.00000	1145.22766	542.72253	387.55145	0.00000	0.00000	0.00000	0.00000	0.00000	0.00000	0.00000	0.00000	0.00000	0.00000	0.00000	0.00000	0.00000	0.00000	0.00000	0.00000	0.00000	0.00000	0.00000	0.00000	0.00000	0.00000	0.00000	0.00000	1294.39099	81.74835	447.53201	0.00000	0.00000	0.00000	1397.44702	1041.29724	297.61423	0.00000	0.00000	0.00000	1282.03796	844.82037	171.85248	1283.13147	765.76624	177.91125	0.00000	0.00000	0.00000	1214.44617	767.03357	212.31874	1309.37415	510.59042	234.37753	0.00000	0.00000	0.00000	0.00000	0.00000	0.00000	0.00000	0.00000	0.00000	0.00000	0.00000	0.00000	1331.46045	983.18091	479.37866	0.00000	0.00000	0.00000	0.00000	0.00000	0.00000	0.00000	0.00000	0.00000	0.00000	0.00000	0.00000	1234.90491	57.55763	314.11758	1284.53589	46.07858	254.99332
573	2.28800	0.00000	0.00000	0.00000	1235.84753	624.79388	868.93671	0.00000	0.00000	0.00000	1123.08142	569.83850	345.78873	0.00000	0.00000	0.00000	0.00000	0.00000	0.00000	0.00000	0.00000	0.00000	1137.71790	544.35535	387.29279	0.00000	0.00000	0.00000	1213.12402	397.99069	505.60861	1287.42126	384.39447	501.24527	0.00000	0.00000	0.00000	0.00000	0.00000	0.00000	0.00000	0.00000	0.00000	0.00000	0.00000	0.00000	1334.07935	104.95853	497.07404	1276.27954	80.37883	447.82822	1305.66431	82.43042	394.32080	1392.61047	1041.55127	297.83603	0.00000	0.00000	0.00000	1278.81702	845.11115	171.67043	1280.46582	766.11182	177.65025	0.00000	0.00000	0.00000	1211.65149	766.83765	211.63757	1308.40442	510.95764	234.17441	0.00000	0.00000	0.00000	0.00000	0.00000	0.00000	0.00000	0.00000	0.00000	0.00000	0.00000	0.00000	1326.56238	983.78107	479.09897	0.00000	0.00000	0.00000	1306.70862	639.10913	527.71667	0.00000	0.00000	0.00000	0.00000	0.00000	0.00000	1234.90332	57.50021	314.14691	1284.55066	46.04322	254.97141
574	2.29200	0.00000	0.00000	0.00000	0.00000	0.00000	0.00000	0.00000	0.00000	0.00000	1120.77124	570.16907	345.52750	0.00000	0.00000	0.00000	0.00000	0.00000	0.00000	0.00000	0.00000	0.00000	1129.95679	545.44025	387.21451	0.00000	0.00000	0.00000	1203.61218	396.82166	505.23877	1276.33081	382.18762	501.32861	0.00000	0.00000	0.00000	0.00000	0.00000	0.00000	1399.48413	213.98727	390.91040	0.00000	0.00000	0.00000	1316.45374	101.93669	497.49658	1257.91687	79.20531	447.91522	1287.29919	80.21056	394.62735	1387.74548	1041.76526	298.09430	0.00000	0.00000	0.00000	1275.52637	845.31030	171.55939	1277.78589	766.41467	177.30826	0.00000	0.00000	0.00000	1208.73853	766.55408	211.07854	1307.56226	511.31522	233.92744	0.00000	0.00000	0.00000	0.00000	0.00000	0.00000	0.00000	0.00000	0.00000	0.00000	0.00000	0.00000	1321.65405	984.25269	478.81116	0.00000	0.00000	0.00000	0.00000	0.00000	0.00000	0.00000	0.00000	0.00000	1259.32129	47.30468	363.32782	1234.91968	57.16763	314.36755	1284.69897	46.19549	254.74516
